<svg width="25" height="25" xmlns="http://www.w3.org/2000/svg">
 <g>
  <title>Layer 1</title>
  <path transform="rotate(-180 11.7624 13.2768)" stroke="#fff" fill="#000" d="m17.8524,19.13125c0.48409,-1.04909 0.94707,-2.25854 1.35492,-3.34423l-12.22064,-0.49818l-1.67625,4.29025l-5.3104,-0.36848c0.6654,-1.9533 1.39432,-4.24789 1.93475,-5.97136l-1.92241,-5.79394l5.66607,0l1.15287,3.62009l12.47697,0l-1.54767,-3.61199c0.47763,-1.13827 1.1845,-2.65733 1.56796,-3.45379l4.19621,9.20582l-4.20576,9.34863l-1.46663,-3.42282l0,0z" id="svg_3"/>
  <path stroke="#fff" fill="#000" d="m-441.14796,64.61762c2.3787,-1.08043 4.65359,-2.32603 6.65768,-3.44416l-60.04881,-0.51306l-8.23664,4.41845l-26.09382,-0.37949c3.26959,-2.01167 6.8513,-4.37483 9.50682,-6.1498l-9.44619,-5.96708l27.84149,0l5.66487,3.72827l61.30839,0l-7.60482,-3.71993c2.34694,-1.17229 5.8203,-2.73673 7.70447,-3.557l20.61903,9.48091l-20.66593,9.62799l-7.2066,-3.5251l0.00003,0l0.00003,0z" id="svg_10"/>
 </g>

</svg>