<svg width="50" height="50" xmlns="http://www.w3.org/2000/svg">
 <g id="Layer_1">
  <title>Layer 1</title>
  <g stroke="null" id="svg_1">
   <path stroke="#44fc11" fill="none" id="svg_14" d="m16.46044,8.65832c0.18707,0 0.18707,-0.16023 0.18707,-0.32049c0,-0.16023 0.46347,-0.74231 1.30956,-1.76267c0.63167,-0.76177 1.15877,-1.42433 1.6837,-2.24338c0.20133,-0.31409 1.10236,-0.97966 1.49663,-1.28194c0.89257,-0.68433 1.50374,-0.78347 2.61913,-1.1217c1.50674,-0.45691 3.35964,-0.72096 5.05113,-0.80122c1.49434,-0.07091 3.20504,-0.24614 4.86403,0c2.7403,0.40656 4.00425,1.34791 4.86405,1.92292c0.41709,0.27892 0.57471,0.47322 0.9354,0.96145c0.58333,0.78955 0.99997,1.47054 1.30953,2.24338c0.27153,0.67784 0.28537,1.29546 0.56126,2.40364c0.28406,1.14093 0.46403,2.24959 0.37414,2.72411c-0.09475,0.50018 -0.5936,0.93786 -0.7483,1.1217c-0.2446,0.29069 -0.50561,0.88795 -1.12247,1.12168c-0.70543,0.26728 -1.96315,0.86945 -3.74159,1.28194c-1.63517,0.37925 -2.82055,0.4377 -3.55449,0.64098c-0.9586,0.26548 -1.87653,0.6269 -2.43203,0.80122c-0.94599,0.29683 -1.66133,0.68133 -2.80617,1.12168c-0.91904,0.35352 -1.86074,0.66018 -3.92866,1.4422c-1.30339,0.49289 -2.32416,0.86983 -3.36743,1.60243c-0.81839,0.57469 -1.63204,1.15739 -2.24493,1.76267c-0.34668,0.3424 -0.70257,0.50186 -1.12249,1.12168c-0.33854,0.4997 -0.98037,0.85534 -1.49663,1.92292c-0.36505,0.75489 -0.71548,1.61224 -1.12247,2.56387c-0.34652,0.81029 -0.72758,1.6085 -1.12247,2.56387c-0.53345,1.29062 -0.74833,2.24338 -1.30956,3.36507c-0.56123,1.1217 -0.84154,1.91297 -0.9354,2.88437c-0.07715,0.79849 -0.06858,1.92652 0,2.40364c0.09426,0.65573 0.54582,1.13076 0.9354,1.6024c0.54024,0.65407 1.19935,1.39289 2.05787,1.92292c0.67873,0.41903 1.5609,0.44276 2.61913,0.80122c0.62726,0.21246 1.66982,0.7207 2.61909,0.80122c0.55851,0.04736 0.6245,0.04012 0.7483,0.16023c0.99818,0.96851 2.80619,0.16023 3.74159,0.16023c1.49663,0 2.24493,0 3.3674,0c1.87079,0 2.80619,0 3.74159,0c0.37417,0 0.7483,0 0.9354,0c0.9354,0 1.6837,0 4.30279,0c0.56123,0 0.74833,0 1.12249,0c0.56123,0 1.12247,0.32049 2.24493,0.48075l0,0l0.18707,0"/>
   <path stroke="#44fc11" fill="none" id="svg_15" d="m16.64751,8.20082c0,0 -0.18707,0.16025 -0.18707,0.32049c0,0.16025 0,0.32049 0,0.64098c0,0.48072 -0.0775,0.73483 0.18707,0.96145c0.13228,0.11331 0.39823,0.2846 0.74833,0.48072c1.22285,0.68502 2.19106,1.11875 3.18033,1.28194c0.3674,0.06061 0.5182,-0.08792 1.30956,-0.32049c0.90228,-0.26517 1.25219,-0.39398 1.49663,-0.48072c0.17284,-0.06133 0.24188,-0.04692 0.37417,-0.16023c0.13228,-0.11331 0.31679,-0.23377 0.56123,-0.32049c0.34565,-0.12263 0.37414,-0.16023 0.56123,-0.16023c0.18707,0 0.37414,-0.32049 0.56123,-0.32049c0.18707,0 0.37417,0 0.56123,-0.16023c0.37417,-0.32049 0.61602,-0.52767 0.7483,-0.64098c0.13228,-0.11331 0.01832,-0.29236 0.37417,-0.48072c0.15915,-0.08425 0.27581,-0.18417 0.37417,-0.32049c0.21991,-0.30479 0.42895,-0.20719 0.56123,-0.32049c0.13228,-0.11331 0.0183,-0.45259 0.37417,-0.64096c0.15913,-0.08425 0.37417,-0.16023 0.56123,-0.32049c0.18707,-0.16023 0.37659,-0.29482 0.56123,-0.32049c0.58395,-0.08116 1.16518,-0.1365 1.6837,-0.32047c0.24444,-0.08674 0.31682,-0.23377 0.56126,-0.32049c0.34565,-0.12263 1.12247,0 1.87077,0c0.18709,0 0.38096,-0.04277 0.56123,0c1.05127,0.24942 1.66828,0.5427 1.87079,0.96145c0.0716,0.14805 -0.07157,0.33268 0,0.48072c0.10124,0.20937 0.18707,0.48072 0.18707,0.96147c0,0.16023 0.03838,0.33914 -0.18707,0.64096c-0.64558,0.8643 -1.12247,1.1217 -1.49663,1.60243c-0.37417,0.48072 -0.90034,0.99459 -1.30953,1.28194c-0.52165,0.3663 -1.50722,0.4675 -2.05789,0.80122c-0.76358,0.46275 -1.87363,0.78944 -2.80617,0.96145c-2.44001,0.45007 -3.57476,0.77963 -4.67696,0.96145c-0.98926,0.16319 -1.80623,0.77285 -2.99326,1.1217c-0.90228,0.26517 -1.51701,0.35239 -2.05789,0.48072c-1.05124,0.24942 -1.94318,0.6304 -2.70562,1.28194c-0.76243,0.65154 -0.61799,1.00037 -1.49465,1.28708c-0.87665,0.28671 -0.81989,0.62515 -1.49861,1.04415c-0.42924,0.265 -0.56324,0.56684 -0.74833,1.20439c-0.1851,0.63754 -0.73588,0.71953 -0.9354,1.35777c-0.35229,1.12685 -1.13086,1.19971 -1.22302,1.99703c-0.094,0.8131 -0.24107,1.10056 -0.56123,1.76267c-0.22639,0.46815 -0.39583,1.11591 -0.56123,1.60243c-0.21563,0.63433 -0.63959,1.16281 -0.9354,1.9229c-0.23666,0.60809 -0.15732,1.30943 -0.37417,1.92292c-0.19545,0.55297 -0.4563,1.37335 -0.65175,1.92632c-0.32528,0.92022 -0.16178,1.45048 -0.28164,2.08315c-0.09475,0.50018 -0.09253,0.88047 -0.09253,1.36121c0,1.12168 0.18908,1.51973 0.18908,2.32094c0,0.48072 0.18686,1.26246 0.28161,1.76267c0.11986,0.63267 0.78134,1.19211 0.94141,1.52315c0.16006,0.33104 -0.12347,0.46144 0.55522,0.88047c0.42928,0.26502 0.72416,0.78801 1.21301,0.96145c0.34568,0.12263 0.75253,0.25743 1.21301,0.48075c0.67123,0.32552 1.12429,0.12865 1.49663,0.16023c0.94927,0.08051 2.08901,0.27197 4.48989,0.64096c1.34055,0.20603 2.43203,0.48075 2.61909,0.48075c0.37417,0 0.53851,0.07908 1.12249,0.16023c0.55398,0.077 1.87246,0.14901 3.3674,0.32049c1.31115,0.1504 2.06347,0.08192 2.80619,0.16023c0.76554,0.08072 1.87079,0.16023 3.18033,0.16023c0.74833,0 1.30956,0 1.68373,0c0.7483,0 1.6837,0 2.80617,0c0.9354,0 1.12247,0 1.49663,0c0.37417,0 1.69221,0.58971 2.80619,0c0.35581,-0.18837 0.30254,-0.49293 0.37414,-0.64096c0.10127,-0.20937 0.56126,-0.48072 0.74833,-0.64098c0,0 0.13228,-0.20716 0,-0.32047c-0.13228,-0.11331 -0.15952,-0.188 -0.37417,-0.32049c-0.33938,-0.20949 -0.56123,-0.16023 -0.56123,-0.16023l-0.18707,0l-0.18709,-0.16025l-0.34144,-0.13223"/>
   <path stroke="#ff0000" fill="none" id="svg_16" d="m20.57617,8.1776c-0.18707,0 -0.24188,0.04692 -0.37417,0.16023c-0.13228,0.11331 -0.24186,0.04695 -0.37414,0.16025c-0.13228,0.11331 -0.37417,0.16023 -0.56123,0.16023c-0.18709,0 -0.26419,-0.16529 -0.9354,0.16023c-0.23024,0.11167 -0.57549,0.25916 -0.74833,0.32049c-0.24441,0.08671 -0.49529,0.47634 -1.30953,0.64098c-0.72831,0.14726 -0.9354,0.16023 -1.12249,0.16023c-0.18707,0 -0.75404,0.1462 -1.30953,0.32049c-0.94599,0.29681 -1.80486,0.47631 -2.61909,0.64096c-0.54625,0.11045 -0.9354,0.16025 -1.12249,0.16025c-0.37414,0 -0.56123,0 -0.7483,0c-0.18709,0 -0.18709,0 -0.56123,0c-0.37417,0 -0.69096,-0.07352 -0.9354,-0.16025c-0.17284,-0.06133 -0.18709,0 -0.18709,-0.16023c0,-0.16025 0.20133,-0.25918 0.37417,-0.32049c0.24444,-0.08671 0.37417,-0.32049 0.18709,-0.32049c-0.18709,0 -0.42898,0.11331 -0.56126,0c-0.13228,-0.11331 -0.18707,-0.16023 -0.37414,-0.16023c-0.18709,0 -0.37417,0 -0.74833,0c-0.18707,0 0,0 0.18709,0c0.18707,0 0.37414,0.16023 0.7483,0.48072c0.18707,0.16023 0.18707,0.16023 0.18707,0.32049c0,0.16023 0.0716,0.33268 0,0.48072c-0.10124,0.20935 -0.20539,0.45259 -0.56123,0.64096c-0.15913,0.08423 -0.24186,0.04695 -0.37414,0.16025c-0.13228,0.11331 -0.18209,0.19705 0,0.16023c0.40712,-0.08231 0.56123,-0.32049 0.56123,-0.48072c0,-0.16023 0.11547,-0.17245 0.18707,-0.32049c0.10124,-0.20935 0.18707,-0.16023 0.18707,-0.16023c0,-0.16023 0,-0.32049 0,-0.48072c0,-0.16025 0,-0.32049 0,-0.64098c0,-0.16023 0,-0.16023 -0.18707,-0.16023l-0.18707,-0.16023l-0.37417,0"/>
   <path stroke="#000000" fill="none" id="svg_18" d="m18.33124,9.94026c0.18707,0 0.38839,0.06133 0.56123,0c0.24441,-0.08671 0.24188,-0.20719 0.37417,-0.32049c0.13228,-0.11331 0.24186,-0.20719 0.37414,-0.32049c0.13228,-0.11331 0.21558,-0.0376 0.56123,-0.16023c0.24444,-0.08671 0.31682,-0.39401 0.56126,-0.48072c0.17284,-0.0613 0.05478,-0.20719 0.18707,-0.32049c0.13228,-0.11331 0.18707,-0.32049 0.18707,-0.64096l0,-0.16025l-0.18707,0l0,-0.16023"/>
   <path stroke="#000000" fill="none" id="svg_19" d="m20.01493,4.81251c0.18707,0 0.37417,0 0.56123,0c0.18709,0 0.37417,0 0.56123,0c0,0 0.31938,-0.04692 0.18709,-0.16023c-0.13228,-0.11331 -0.19211,-0.03682 -0.37417,0c-0.40712,0.08231 -0.56123,0.16023 -0.74833,0.16023c-0.18707,0 -0.26543,0.06713 -0.56123,0.32049c-0.29577,0.25334 -0.47246,0.50466 -0.37414,0.64096c0.21991,0.30479 0.36026,0.40021 1.30953,0.48072c0.37233,0.03158 0.61604,0.27356 0.74833,0.16025c0.13228,-0.11331 0,-0.32049 0,-0.48072c0,-0.32049 0,-0.64098 0,-0.80122c0,-0.16025 0,-0.32049 -0.18709,-0.32049c0,0 -0.18707,0 -0.37414,0c-0.18709,0 -0.24188,0.20719 -0.37417,0.32049c-0.13228,0.11331 -0.18709,0.16023 -0.18709,0.48072l0,0.32049l0,0.16023l0.18709,0"/>
   <path stroke="#894F3F" fill="#7f3f00" d="m38.02323,19.28678l-5.78957,-1.94311c-1.46072,-0.48977 -3.38548,-0.25405 -4.30589,0.52612l-2.28199,1.93949l11.07569,3.71459l2.2838,-1.93858c0.91692,-0.78109 0.47931,-1.80982 -0.98202,-2.2985l0,0l0,-0.00001zm-32.08669,17.27878l11.0763,3.71455l18.05252,-15.34567l-11.08157,-3.71552l-18.04725,15.34663l0,0zm-1.6919,4.71948l-0.24464,3.48902l5.78069,-1.6327l5.3719,-1.51456l-10.68565,-3.58582l-0.2223,3.24406l0,0l0,0z" id="svg_20"/>
  </g>
 </g>

</svg>