<svg width="256" height="256" xmlns="http://www.w3.org/2000/svg">
 <g id="Layer_1">
  <title>Layer 1</title>
  <g stroke="null" id="svg_1">
   <path stroke="#44fc11" d="m100.07147,62.87566c0.79677,0 0.79677,-0.60415 0.79677,-1.20841c0,-0.60415 1.97401,-2.79888 5.57767,-6.64614c2.69041,-2.87225 4.93543,-5.37043 7.17121,-8.45866c0.8575,-1.18428 4.69517,-3.6938 6.37444,-4.83355c3.80163,-2.58026 6.40473,-2.95407 11.15539,-4.22937c6.4175,-1.72278 14.30937,-2.71838 21.51376,-3.021c6.36469,-0.26737 13.6509,-0.92807 20.71686,0c11.67148,1.53293 17.05489,5.08229 20.71695,7.25036c1.77647,1.05167 2.4478,1.78427 3.98405,3.62514c2.48452,2.977 4.25907,5.54467 5.57755,8.45866c1.1565,2.55579 1.21545,4.88453 2.39052,9.06292c1.20987,4.30187 1.9764,8.48207 1.59354,10.27125c-0.40356,1.88593 -2.52826,3.5362 -3.18716,4.22937c-1.0418,1.09605 -2.15349,3.34801 -4.78082,4.22929c-3.00457,1.00778 -8.36144,3.27826 -15.93617,4.83355c-6.96451,1.42996 -12.01328,1.65035 -15.13927,2.41681c-4.08287,1.00099 -7.99251,2.36372 -10.3585,3.021c-4.02916,1.1192 -7.07593,2.56895 -11.95203,4.22929c-3.91437,1.33295 -7.92526,2.48921 -16.73294,5.43781c-5.5514,1.85844 -9.89906,3.27969 -14.34255,6.04196c-3.48568,2.16687 -6.95118,4.36393 -9.5616,6.64614c-1.47658,1.29102 -2.99238,1.89226 -4.78091,4.22929c-1.44191,1.88412 -4.17559,3.22506 -6.37444,7.25036c-1.55482,2.84631 -3.04737,6.07895 -4.78082,9.66706c-1.4759,3.0552 -3.09891,6.06484 -4.78082,9.66706c-2.27207,4.86628 -3.18729,8.45866 -5.57767,12.68798c-2.39039,4.22937 -3.58428,7.21285 -3.98405,10.87551c-0.3286,3.0107 -0.2921,7.26394 0,9.06292c0.40147,2.47243 2.32476,4.26353 3.98405,6.04184c2.30099,2.46617 5.10827,5.25189 8.76487,7.25036c2.89084,1.57995 6.64818,1.66942 11.15539,3.021c2.67162,0.80108 7.11209,2.7174 11.15522,3.021c2.3788,0.17857 2.65987,0.15127 3.18716,0.60415c4.25145,3.65176 11.95212,0.60415 15.93617,0.60415c6.37444,0 9.5616,0 14.34242,0c7.96806,0 11.95212,0 15.93617,0c1.59366,0 3.18716,0 3.98405,0c3.98405,0 7.17121,0 18.32643,0c2.39039,0 3.18729,0 4.78091,0c2.39039,0 4.78082,1.20841 9.5616,1.81267l0,0l0.79677,0" id="svg_14" fill="none"/>
   <path stroke="#44fc11" d="m100.86824,61.15066c0,0 -0.79677,0.60422 -0.79677,1.20841c0,0.60422 0,1.20841 0,2.41681c0,1.81255 -0.33009,2.77067 0.79677,3.62514c0.56341,0.42723 1.69614,1.07308 3.18729,1.81255c5.20836,2.58287 9.33216,4.21824 13.54565,4.83355c1.56483,0.22853 2.20712,-0.3315 5.57767,-1.20841c3.84299,-0.99982 5.33332,-1.4855 6.37444,-1.81255c0.73616,-0.23124 1.03021,-0.17691 1.59366,-0.60415c0.56341,-0.42723 1.34927,-0.88143 2.39039,-1.20841c1.47219,-0.46238 1.59354,-0.60415 2.39039,-0.60415c0.79677,0 1.59354,-1.20841 2.39039,-1.20841c0.79677,0 1.59366,0 2.39039,-0.60415c1.59366,-1.20841 2.62375,-1.98958 3.18716,-2.41681c0.56341,-0.42723 0.07803,-1.10234 1.59366,-1.81255c0.67785,-0.31766 1.17473,-0.69441 1.59366,-1.20841c0.93664,-1.14921 1.82698,-0.78121 2.39039,-1.20841c0.56341,-0.42723 0.07794,-1.70649 1.59366,-2.41674c0.67777,-0.31766 1.59366,-0.60415 2.39039,-1.20841c0.79677,-0.60415 1.60397,-1.11162 2.39039,-1.20841c2.48716,-0.30601 4.96273,-0.51467 7.17121,-1.20833c1.04112,-0.32705 1.3494,-0.88143 2.39052,-1.20841c1.47219,-0.46238 4.78082,0 7.96798,0c0.79685,0 1.62258,-0.16126 2.39039,0c4.47757,0.94044 7.10553,2.04625 7.96806,3.62514c0.30496,0.55822 -0.30483,1.25437 0,1.81255c0.4312,0.78943 0.79677,1.81255 0.79677,3.62522c0,0.60415 0.16347,1.27873 -0.79677,2.41674c-2.74965,3.25884 -4.78082,4.22937 -6.37444,6.04196c-1.59366,1.81255 -3.83473,3.7501 -5.57755,4.83355c-2.22181,1.38113 -6.41955,1.76271 -8.76496,3.021c-3.25224,1.7448 -7.98016,2.97658 -11.95203,3.62514c-10.39248,1.69699 -15.22561,2.93959 -19.9201,3.62514c-4.21345,0.61531 -7.69309,2.91403 -12.74888,4.22937c-3.84299,0.99982 -6.46124,1.32869 -8.76496,1.81255c-4.47744,0.94044 -8.27639,2.37692 -11.52377,4.83355c-3.24734,2.45663 -2.63214,3.77189 -6.36601,4.85293c-3.73383,1.08104 -3.49207,2.35713 -6.38288,3.93696c-1.82822,0.99918 -2.39895,2.13727 -3.18729,4.54115c-0.78838,2.40384 -3.13426,2.71299 -3.98405,5.11947c-1.50047,4.24878 -4.81656,4.5235 -5.20908,7.52979c-0.40036,3.06579 -1.02676,4.14966 -2.39039,6.64614c-0.96424,1.76516 -1.68592,4.20753 -2.39039,6.04196c-0.91841,2.39174 -2.72414,4.38437 -3.98405,7.25029c-1.00798,2.2928 -0.67006,4.9372 -1.59366,7.25036c-0.83246,2.08497 -1.94347,5.17821 -2.77593,7.26318c-1.38543,3.46969 -0.68905,5.46903 -1.19956,7.85451c-0.40356,1.88593 -0.3941,3.31981 -0.3941,5.13244c0,4.22929 0.80533,5.73014 0.80533,8.7511c0,1.81255 0.79587,4.7601 1.19943,6.64614c0.51051,2.38548 3.32788,4.49485 4.00965,5.74303c0.68173,1.24819 -0.52588,1.73986 2.36479,3.31981c1.82839,0.99926 3.08434,2.97119 5.16645,3.62514c1.47232,0.46238 3.20517,0.97064 5.16645,1.81267c2.8589,1.22737 4.78857,0.48507 6.37444,0.60415c4.04313,0.30356 8.89751,1.02546 19.12333,2.41674c5.70967,0.77684 10.3585,1.81267 11.15522,1.81267c1.59366,0 2.29362,0.29817 4.78091,0.60415c2.35951,0.29033 7.97518,0.56184 14.34242,1.20841c5.58445,0.56708 8.78873,0.30888 11.95212,0.60415c3.26059,0.30435 7.96806,0.60415 13.54565,0.60415c3.18729,0 5.57767,0 7.17134,0c3.18716,0 7.17121,0 11.95203,0c3.98405,0 4.78082,0 6.37444,0c1.59366,0 7.20746,2.2235 11.95212,0c1.51546,-0.71025 1.28858,-1.85859 1.59354,-2.41674c0.43133,-0.78943 2.39052,-1.81255 3.18729,-2.41681c0,0 0.56341,-0.7811 0,-1.20833c-0.56341,-0.42723 -0.67943,-0.70885 -1.59366,-1.20841c-1.44549,-0.78988 -2.39039,-0.60415 -2.39039,-0.60415l-0.79677,0l-0.79685,-0.60422l-1.45426,-0.49857" id="svg_15" fill="none"/>
   <path stroke="#ff0000" d="m117.60118,61.06311c-0.79677,0 -1.03021,0.17691 -1.59366,0.60415c-0.56341,0.42723 -1.03013,0.17702 -1.59354,0.60422c-0.56341,0.42723 -1.59366,0.60415 -2.39039,0.60415c-0.79685,0 -1.12524,-0.62323 -3.98405,0.60415c-0.98064,0.42105 -2.45113,0.97716 -3.18729,1.20841c-1.04099,0.32694 -2.10954,1.79604 -5.57755,2.41681c-3.10202,0.55524 -3.98405,0.60415 -4.78091,0.60415c-0.79677,0 -3.21161,0.55125 -5.57755,1.20841c-4.02916,1.11912 -7.68725,1.79593 -11.15522,2.41674c-2.32659,0.41645 -3.98405,0.60422 -4.78091,0.60422c-1.59354,0 -2.39039,0 -3.18716,0c-0.79685,0 -0.79685,0 -2.39039,0c-1.59366,0 -2.94293,-0.27721 -3.98405,-0.60422c-0.73616,-0.23124 -0.79685,0 -0.79685,-0.60415c0,-0.60422 0.8575,-0.97724 1.59366,-1.20841c1.04112,-0.32694 1.59366,-1.20841 0.79685,-1.20841c-0.79685,0 -1.82711,0.42723 -2.39052,0c-0.56341,-0.42723 -0.79677,-0.60415 -1.59354,-0.60415c-0.79685,0 -1.59366,0 -3.18729,0c-0.79677,0 0,0 0.79685,0c0.79677,0 1.59354,0.60415 3.18716,1.81255c0.79677,0.60415 0.79677,0.60415 0.79677,1.20841c0,0.60415 0.30496,1.25437 0,1.81255c-0.4312,0.78935 -0.8748,1.70649 -2.39039,2.41674c-0.67777,0.31759 -1.03013,0.17702 -1.59354,0.60422c-0.56341,0.42723 -0.77556,0.74298 0,0.60415c1.734,-0.31035 2.39039,-1.20841 2.39039,-1.81255c0,-0.60415 0.49181,-0.65022 0.79677,-1.20841c0.4312,-0.78935 0.79677,-0.60415 0.79677,-0.60415c0,-0.60415 0,-1.20841 0,-1.81255c0,-0.60422 0,-1.20841 0,-2.41681c0,-0.60415 0,-0.60415 -0.79677,-0.60415l-0.79677,-0.60415l-1.59366,0" id="svg_16" fill="none"/>
   <path stroke="#000000" d="m108.03958,67.70921c0.79677,0 1.65423,0.23124 2.39039,0c1.04099,-0.32694 1.03021,-0.78121 1.59366,-1.20841c0.56341,-0.42723 1.03013,-0.78121 1.59354,-1.20841c0.56341,-0.42723 0.9182,-0.14177 2.39039,-0.60415c1.04112,-0.32694 1.3494,-1.48561 2.39052,-1.81255c0.73616,-0.23113 0.23332,-0.78121 0.79677,-1.20841c0.56341,-0.42723 0.79677,-1.20841 0.79677,-2.41674l0,-0.60422l-0.79677,0l0,-0.60415" id="svg_18" fill="none"/>
   <path stroke="#000000" d="m115.21075,48.37505c0.79677,0 1.59366,0 2.39039,0c0.79685,0 1.59366,0 2.39039,0c0,0 1.3603,-0.17691 0.79685,-0.60415c-0.56341,-0.42723 -0.81823,-0.13883 -1.59366,0c-1.734,0.31035 -2.39039,0.60415 -3.18729,0.60415c-0.79677,0 -1.13052,0.25311 -2.39039,1.20841c-1.25974,0.95522 -2.0123,1.90282 -1.59354,2.41674c0.93664,1.14921 1.53442,1.50899 5.57755,1.81255c1.58583,0.11907 2.62384,1.03146 3.18729,0.60422c0.56341,-0.42723 0,-1.20841 0,-1.81255c0,-1.20841 0,-2.41681 0,-3.021c0,-0.60422 0,-1.20841 -0.79685,-1.20841c0,0 -0.79677,0 -1.59354,0c-0.79685,0 -1.03021,0.78121 -1.59366,1.20841c-0.56341,0.42723 -0.79685,0.60415 -0.79685,1.81255l0,1.20841l0,0.60415l0.79685,0" id="svg_19" fill="none"/>
   <path stroke="#894F3F" id="svg_20" d="m191.91165,102.95023l-24.65892,-7.32649c-6.22149,-1.84668 -14.41943,-0.95789 -18.33963,1.98373l-9.71945,7.31284l47.17355,14.00585l9.72715,-7.30941c3.90534,-2.9451 2.04148,-6.82392 -4.18262,-8.66649l0,0l0,-0.00004l-0.00009,0zm-136.66354,65.14958l47.17615,14.0057l76.88924,-57.86079l-47.19859,-14.00935l-76.8668,57.86441l0,0l0,0.00004zm-7.20614,17.79478l-1.04197,13.15534l24.6211,-6.15609l22.87998,-5.71064l-45.51229,-13.52032l-0.94682,12.23172l0,0l0,0z" fill="#7f3f00"/>
  </g>
 </g>

</svg>